<?xml version="1.0" encoding="utf-8"?>
<!-- Generator: Adobe Illustrator 25.2.3, SVG Export Plug-In . SVG Version: 6.00 Build 0)  -->
<svg version="1.1" id="Layer_1" xmlns="http://www.w3.org/2000/svg" xmlns:xlink="http://www.w3.org/1999/xlink" x="0px" y="0px"
	 viewBox="0 0 513.1 181.7" style="enable-background:new 0 0 513.1 181.7;" xml:space="preserve">
<style type="text/css">
	.st0{fill-rule:evenodd;clip-rule:evenodd;fill:#89BD24;}
	.st1{fill-rule:evenodd;clip-rule:evenodd;fill:#FFFFFF;}
</style>
<path class="st0" d="M323.3,106.1c0.1-10.3,0.2-20.6,0.2-31c16.1,0.1,32.2,0.2,48.2,0.2c0.1,10.2,0.2,20.5,0.2,30.7
	c9,0.1,17.9,0.2,26.9,0.2c0,13.5,0,27,0,40.6c-9,0.1-18.1,0.2-27.1,0.2c0,11.5,0,23,0,34.6c-16.7-0.1-33.4-0.2-50.2-0.2
	c0-0.1,0-0.2,0-0.2c0-11.4,0-22.9,0-34.3c-32,0-64,0-96,0c0-11.2,0-22.4,0-33.6C252.8,75.5,280,37.8,307.2,0
	c17.7,0.1,35.4,0.2,53,0.2C342.5,25.8,324.7,51.4,307,77c-11.6,16.7-20,28.6-20.2,29.3C299,106.2,311.1,106.2,323.3,106.1z"/>
<path class="st1" d="M0,30.2c14.3,0,28.6,0,43,0c0,42.8,0,85.6,0,128.4c-14.3,0-28.6,0-43,0C0,115.8,0,73,0,30.2z"/>
<path class="st1" d="M43.7,30.2c14.7,0.1,29.4,0.2,44.2,0.2c7.7,24.9,15.4,49.8,23,74.6c0.1,0,0.2,0,0.2,0
	c8.2-25,16.3-49.9,24.5-74.9c13.3,0.1,26.6,0.2,39.8,0.2c12.5,40.4,23.2,75.2,23.5,75.6c8.1-25.3,16.2-50.6,24.2-75.8
	c13.8,0,27.5,0,41.3,0c0,0.1,0,0.2,0,0.2c-3.2,9.6-6.4,19.2-9.6,28.8c-12.2,16.8-24.3,33.6-36.5,50.4c0,13.6,0,27.2,0,40.8
	c2.1,2.2,3.7,3.6,3.7,3.6c0,0,1.1,0,1.6,0c-0.5,1.5-1,3-1.4,4.6c-15.3,0-30.6,0-45.8,0c-7.4-23.8-14.7-47.7-22.1-71.5
	c-7.5,23.8-15,47.7-22.6,71.5c-15.4-0.1-30.7-0.2-46.1-0.2C71.7,115.7,57.7,73,43.7,30.2z"/>
<path class="st1" d="M379,158.6c0-1.5,0-3,0-4.6c7.8,0,15.7,0,23.5,0c1.2-1.3,2.4-2.6,3.6-3.8c0-14,0-28,0-42
	c3.5-4.9,7-9.8,10.6-14.6c-15.2-21.1-30.4-42.2-45.6-63.4c16,0,32,0,48,0c7.6,11,15.2,21.9,22.8,32.9c0.1,0,0.2,0,0.2,0
	c7.4-11,14.9-21.9,22.3-32.9c15.4,0,30.7,0,46.1,0c-26.4,36.1-45.5,62.1-45.6,62.6c16.1,21.9,32.2,43.8,48.2,65.8
	c-16.4,0-32.8,0-49.2,0c-7.7-11.6-15.4-23.2-23-34.8c-0.2,0.1-0.3,0.2-0.5,0.2c-7.4,11.5-14.9,23-22.3,34.6
	C405,158.6,392,158.6,379,158.6z"/>
</svg>
