<?xml version="1.0" encoding="utf-8"?>
<!-- Generator: Adobe Illustrator 25.2.3, SVG Export Plug-In . SVG Version: 6.00 Build 0)  -->
<svg version="1.1" id="Layer_2" xmlns="http://www.w3.org/2000/svg" xmlns:xlink="http://www.w3.org/1999/xlink" x="0px" y="0px"
	 viewBox="0 0 2134.9 756" style="enable-background:new 0 0 2134.9 756;" xml:space="preserve">
<style type="text/css">
	.st0{fill:#FEFEFE;}
	.st1{fill:#86BC25;}
	.st2{display:none;fill:#020203;}
</style>
<g>
	<path class="st0" d="M644,364c-3.8,2.9-3.7,6.6-4.7,9.6c-29.5,92.3-59,184.7-88.4,277.1c-3,9.5-3,9.5-12.7,9.5
		c-57.3,0-114.6,0-171.9,0c-9.3,0-8.3,2-11.6-8.3C298.2,480,241.7,308.1,185.2,136.2c-1-3.1-3-6-2-10.1c2.5,0,5.1,0,7.8,0
		c55,0,109.9,0,164.9,0c10.3,0,8.1-1.9,11.3,8.3c30.7,98.3,61.2,196.6,91.8,294.8c0.8,2.5,1.8,5,2.7,7.7c3.1-3.4,3.6-7.5,4.8-11.1
		c31.6-96.2,63.1-192.4,94.7-288.7c0.5-1.6,1.5-3.1,1.6-4.7c0.7-5.6,4-6.5,9-6.5c50,0.1,99.9,0.1,149.9,0.1c7.3,0,7.4,0.1,9.8,7.9
		c19.2,61.8,38.3,123.7,57.5,185.6c11.9,38.4,23.8,76.7,35.7,115.1c0.7,2.2,1.1,4.5,3.5,6.9c4.9-15.2,9.8-29.8,14.5-44.5
		c28.1-87.6,56.1-175.2,84.2-262.8c2.6-8.1,2.6-8.2,10.6-8.2c52,0,103.9,0,155.9,0c2.3,0,4.6,0.2,7.6,0.3
		c-5.6,17.1-10.9,33.8-16.4,50.5c-6.5,19.9-13.3,39.6-19.6,59.6c-2.1,6.5-5.3,12.1-9.2,17.5c-47.1,65.4-94,130.8-141.2,196.1
		c-3.7,5.2-5.4,10.2-5.3,16.5c0.2,49.6,0.1,99.2,0.2,148.9c0,4.2-1.9,9.1,1.9,12.4c5.4,4.8,8.8,11.9,16.4,14c0.9,0.3,2.1,0.3,2.6,1
		c2,2.6-4.6,16.8-8,17.2c-2,0.2-4,0.1-6,0.1c-57.3,0-114.6,0-171.9,0c-9.2,0-9.3,0-12-9c-28.5-92.7-56.9-185.4-85.4-278
		C646,370.3,645.1,367.4,644,364z"/>
	<path class="st1" d="M1549.3,660.2c-1.9,3.4-1.1,7.2-1.1,10.8c-0.1,25.3,0,50.6,0,75.9c0,8.9-0.1,9-8.4,9c-63.9,0-127.9,0-191.8,0
		c-8.1,0-8.2-0.1-8.3-8.2c0-41,0-81.9,0-122.9c0-2.7-0.1-5.3,0-8c0.1-3.9-1.8-5.3-5.5-5.1c-2.7,0.2-5.3,0-8,0
		c-124.9,0-249.8,0-374.7,0c-13.4,0-12,1.8-12-12.4c-0.1-39,0.1-77.9-0.1-116.9c0-6.6,1.5-12.1,5.4-17.5
		c109.5-152.1,219-304.2,328.2-456.4c4.4-6.1,8.7-8.5,16.2-8.4c66.9,0.3,133.9,0.2,200.8,0.2c2.9,0,5.9-0.6,10,1.1
		c-102.1,146.4-204,292.5-305.6,438.3c1.6,3.2,3.9,2.3,5.7,2.3c46,0.1,91.9,0.1,137.9,0c8.2,0,8.3-0.1,8.3-9.1c0-36,0-71.9,0-107.9
		c0-2.3,0.1-4.7,0-7c-0.1-2.9,1.1-4.3,4.1-4.2c2.3,0.1,4.7,0,7,0c60,0,119.9,0,179.9,0c12.5,0,11-1,11,11.4c0.1,35.3,0,70.6,0,105.9
		c0,12.3-1.3,10.9,11.5,10.9c30.6,0.1,61.3,0,91.9,0c8.8,0,8.9,0.1,8.9,8.6c0,50.9,0,101.9,0,152.8c0,8.1-0.1,8.3-8.1,8.3
		c-30.6,0-61.3,0-91.9,0c-2.3,0-4.7,0.1-7,0c-3.8-0.2-5.5,1.3-5.3,5.2c0.4,9-0.6,18,0.6,26.9
		C1548.4,649.3,1547.3,654.8,1549.3,660.2z"/>
	<path class="st0" d="M1549.3,660.2c-2-5.4-0.9-10.9-0.6-16.4c3.6-5.7,8.8-6.7,15.2-6.7c37.3,0.3,74.6,0.1,111.9,0.1
		c9.3,0,9.4-0.1,9.4-9.2c0-53.3,0.1-106.5-0.1-159.8c0-6.7,1.6-12.1,5.6-17.4c12.9-17,25.3-34.3,37.9-51.4c6.5-8.9,6.5-8.9,0.3-17.5
		c-41.2-57.2-82.4-114.4-123.7-171.6c-18.7-25.9-37.3-51.8-55.9-77.8c-1.1-1.6-2.8-2.8-3-5.1c1.6-2.6,4.2-1.3,6.2-1.3
		c61.3-0.1,122.5,0,183.8-0.2c5.7,0,8.9,1.8,12.1,6.4c27.8,40.6,55.9,81,83.9,121.5c2.1,3,4.2,5.9,6.4,8.9c4-1.5,5.2-5.3,7.2-8.2
		c27.5-40.4,55-80.9,82.2-121.5c3.5-5.3,7.2-7.2,13.6-7.2c57.9,0.3,115.9,0.2,173.8,0.2c2.5,0,5.1,0,7.9,0c-0.1,3.7-2.4,5.4-3.9,7.4
		c-59.3,80.7-118.7,161.3-178,242c-0.4,0.5-0.8,1.1-1.2,1.6c-5.8,8-5.8,8-0.1,15.9c62.7,85.6,125.3,171.3,188,256.9
		c2.1,2.9,4.2,5.8,6.6,9.2c-4,1.6-7.3,1-10.5,1c-60.9,0-121.9-0.1-182.8,0.2c-7.2,0-11.4-2.1-15.3-8c-28-42.5-56.4-84.7-84.6-127
		c-2-3-4.2-6-6.3-9c-3.7,1.9-4.9,5.6-6.8,8.5c-27.6,42.3-55.2,84.7-82.5,127.2c-3.8,6-7.7,8.4-15,8.4
		C1670.5,660,1609.9,660.2,1549.3,660.2z"/>
	<path class="st0" d="M0,393.6c0-85.6,0-171.1,0-256.7c0-12.1-1.3-10.7,10.5-10.7c52.3,0,104.6,0,156.9,0c2,0,4,0.2,6,0
		c4.1-0.4,5.2,1.7,5,5.4c-0.1,2,0,4,0,6c0,170.5,0,341,0,511.4c0,12.6,1.8,11.2-11,11.2c-52.3,0.1-104.6,0-156.9,0c-2,0-4-0.1-6,0
		c-3.5,0.2-4.7-1.6-4.5-4.9c0.1-2.3,0-4.7,0-7C0,563.4,0,478.5,0,393.6z"/>
</g>
</svg>
