<?xml version="1.0" encoding="utf-8"?>
<!-- Generator: Adobe Illustrator 25.2.3, SVG Export Plug-In . SVG Version: 6.00 Build 0)  -->
<svg version="1.1" id="Layer_1" xmlns="http://www.w3.org/2000/svg" xmlns:xlink="http://www.w3.org/1999/xlink" x="0px" y="0px"
	 viewBox="0 0 2319 2572" style="enable-background:new 0 0 2319 2572;" xml:space="preserve">
<style type="text/css">
	.st0{fill-rule:evenodd;clip-rule:evenodd;fill:#FFFFFF;}
	.st1{fill-rule:evenodd;clip-rule:evenodd;fill:none;}
	.st2{fill-rule:evenodd;clip-rule:evenodd;fill:#89BD24;}
</style>
<path class="st0" d="M331,0c0,391,0,782,0,1173c-110.7,0-221.3,0-332,0C-0.7,782-0.3,391,0,0C110.3,0,220.7,0,331,0z"/>
<path class="st0" d="M1089,1173c0-7.7,0-15.3,0-23c-7-6.7-14-13.3-21-20c-104,0-208,0-312,0C634,753.7,512,377.3,390,1
	c0-0.3,0-0.7,0-1c114,0.3,228,0.7,342,1c78.7,249,157.3,498,236,747c0.3,0,0.7,0,1,0c82.3-249.3,164.7-498.7,247-748
	c101.7,0,203.3,0,305,0c78.3,251.6,156.7,503.4,235,755c0.3,0,0.7,0,1,0s0.7,0,1,0c81.7-251.6,163.3-503.4,245-755
	c105.3,0,210.7,0,316,0c-126.3,391-252.7,782-379,1173c-118.7,0-237.3,0-356,0c-54.3-172.6-108.7-345.4-163-518
	c-14.7-46.7-29.3-93.3-44-140c-5.5-16.3-7.3-42.8-18-55c-78,237.6-156,475.4-234,713C1113,1173,1101,1173,1089,1173z"/>
<path class="st1" d="M763,1990c0-79.3,0-158.7,0-238c124.7,0,249.3,0,374,0c0,79.3,0,158.7,0,238c69.7,0.3,139.3,0.7,209,1
	c0,104.3,0,208.7,0,313c-69.7,0.3-139.3,0.7-209,1c0,89.3,0,178.7,0,268c-128.7,0-257.3,0-386,0c-0.3-89.7-0.7-179.3-1-269
	c-247,0-494,0-741,0c0-86,0-172,0-258c209.6-292,419.4-584,629-876c136.7,0,273.3,0,410,0c-189.6,273-379.4,546-569,819
	c0,0.3,0,0.7,0,1C573.7,1990,668.3,1990,763,1990z"/>
<path class="st0" d="M331,0c0,391,0,782,0,1173c-110.7,0-221.3,0-332,0C-0.7,782-0.3,391,0,0C110.3,0,220.7,0,331,0z"/>
<path class="st0" d="M1089,1173c0-7.7,0-15.3,0-23c-7-6.7-14-13.3-21-20c-104,0-208,0-312,0C634,753.7,512,377.3,390,1
	c0-0.3,0-0.7,0-1c114,0.3,228,0.7,342,1c78.7,249,157.3,498,236,747c0.3,0,0.7,0,1,0c82.3-249.3,164.7-498.7,247-748
	c101.7,0,203.3,0,305,0c78.3,251.6,156.7,503.4,235,755c0.3,0,0.7,0,1,0s0.7,0,1,0c81.7-251.6,163.3-503.4,245-755
	c105.3,0,210.7,0,316,0c-126.3,391-252.7,782-379,1173c-118.7,0-237.3,0-356,0c-54.3-172.6-108.7-345.4-163-518
	c-14.7-46.7-29.3-93.3-44-140c-5.5-16.3-13.7-39.6-18-55c-78,237.6-156,475.4-234,713C1113,1173,1101,1173,1089,1173z"/>
<path class="st2" d="M763,1990c0-79.3,0-158.7,0-238c124.7,0,249.3,0,374,0c0,79.3,0,158.7,0,238c69.7,0.3,139.3,0.7,209,1
	c0,104.3,0,208.7,0,313c-69.7,0.3-139.3,0.7-209,1c0,89.3,0,178.7,0,268c-128.7,0-257.3,0-386,0c-0.3-89.7-0.7-179.3-1-269
	c-247,0-494,0-741,0c0-86,0-172,0-258c209.6-292,419.4-584,629-876c136.7,0,273.3,0,410,0c-189.6,273-379.4,546-569,819
	c0,0.3,0,0.7,0,1C573.7,1990,668.3,1990,763,1990z"/>
<path class="st0" d="M1176,2571h228l239-360l245,361h383l-434-607l403-565h-355l-231,338l-233-340h-373l406,583l-69,96v246l-20,21
	h-170l-17,19L1176,2571z"/>
</svg>
